<svg width="24" height="24" viewBox="0 0 24 24" fill="none" xmlns="http://www.w3.org/2000/svg">
  <path d="M11.5 8C7.5 8 3 10.5 3 15C3 19.5 7.5 22 11.5 22C17.5 22 21 15 21 15C21 15 17.5 8 11.5 8Z" stroke="#0ea5e9" stroke-width="1.5" stroke-linecap="round" stroke-linejoin="round"/>
  <path d="M10 12C10 12 13 11 15 13C17 15 16 18 16 18" stroke="#0ea5e9" stroke-width="1.5" stroke-linecap="round" stroke-linejoin="round"/>
  <path d="M14.5 4L11.5 8L15.5 10.5L16.5 8L14.5 4Z" stroke="#0ea5e9" stroke-width="1.5" stroke-linecap="round" stroke-linejoin="round"/>
  <path d="M7.5 14.5C7.5 15.0523 7.05228 15.5 6.5 15.5C5.94772 15.5 5.5 15.0523 5.5 14.5C5.5 13.9477 5.94772 13.5 6.5 13.5C7.05228 13.5 7.5 13.9477 7.5 14.5Z" stroke="#0ea5e9" stroke-width="1.5"/>
</svg> 