<svg width="24" height="24" viewBox="0 0 24 24" fill="none" xmlns="http://www.w3.org/2000/svg">
  <path d="M11.2175 6.98074C10.4388 6.2207 10.4264 5.11665 10.4264 4.26795C10.4264 3.56879 11.1306 3 11.9967 3C12.8628 3 13.567 3.56879 13.567 4.26795C13.567 5.11669 13.5546 6.2207 12.7759 6.98074" stroke="#f97316" stroke-width="1.5" stroke-linecap="round"/>
  <path d="M8.5 11.5C8.5 11.5 10 9.5 12 9.5C14 9.5 15.5 11.5 15.5 11.5" stroke="#f97316" stroke-width="1.5" stroke-linecap="round"/>
  <path d="M18.3627 9.83077C19.3704 10.5904 19.9934 12.2344 19.9934 14.0729C19.9934 16.6165 18.4546 19.5 16.4601 19.5C14.6978 19.5 13.4547 18.3084 11.9967 18.3084C10.5387 18.3084 9.29555 19.5 7.53328 19.5C5.53881 19.5 4 16.6165 4 14.0729C4 11.5294 5.32024 9.5 7.22326 9.5C8.71384 9.5 9.56878 10.3097 11.9967 10.3097C14.4246 10.3097 15.3816 9.5 16.7722 9.5C17.2439 9.5 17.7876 9.61748 18.3627 9.83077Z" stroke="#f97316" stroke-width="1.5"/>
</svg> 