<svg width="24" height="24" viewBox="0 0 24 24" fill="none" xmlns="http://www.w3.org/2000/svg">
  <path d="M15.5 10.5C15.5 13.5376 13.0376 16 10 16C6.96243 16 4.5 13.5376 4.5 10.5C4.5 7.46243 6.96243 5 10 5C13.0376 5 15.5 7.46243 15.5 10.5Z" stroke="#ef4444" stroke-width="1.5"/>
  <path d="M14.2591 5C14.2591 5 16.5 4.5 18.5 7C20.5 9.5 19.7841 15 19.7841 15" stroke="#ef4444" stroke-width="1.5" stroke-linecap="round"/>
  <path d="M18.5 14C18.5 14 17.5 19 13.5 19C9.5 19 6 18 6 18" stroke="#ef4444" stroke-width="1.5" stroke-linecap="round"/>
  <path d="M8 8.5L7.17675 7.67675C7.00162 7.50162 6.70414 7.57303 6.61732 7.81001L6.3001 8.76044C6.25615 8.89307 6.15009 8.99913 6.01746 9.04309L5.70501 9.14501C5.47753 9.22562 5.39549 9.50407 5.55375 9.68339C5.64992 9.78809 5.78502 9.84531 5.91889 9.84518L7 9.84456" stroke="#ef4444" stroke-width="1.5" stroke-linecap="round"/>
  <path d="M13.5 11L13.8661 11.3661C14.0439 11.5439 14.3309 11.5313 14.4929 11.3376L15.0429 10.6876C15.1471 10.5638 15.3085 10.4992 15.4687 10.5163L15.9381 10.5698C16.2336 10.6006 16.4571 10.8679 16.3998 11.1605C16.3666 11.3271 16.2553 11.4661 16.1025 11.5357L14.5 12.5" stroke="#ef4444" stroke-width="1.5" stroke-linecap="round"/>
</svg> 