<?xml version="1.0" encoding="utf-8"?>
<svg enable-background="new 0 0 1024 1024" id="Layer_1" version="1.1" viewBox="0 0 1024 1024" width="100%" x="0px" xml:space="preserve" xmlns="http://www.w3.org/2000/svg" xmlns:xlink="http://www.w3.org/1999/xlink" y="0px">
<path d=" M674.221558,699.853760   C673.696533,725.616821 658.552734,745.934265 636.020264,751.705261   C633.875488,752.254639 631.749146,752.355835 629.588623,752.356079   C553.097168,752.364624 476.605621,752.436646 400.114319,752.325439   C374.508392,752.288208 352.345337,730.213623 351.853058,704.579773   C351.574982,690.098328 352.509216,675.616272 352.540192,661.150085   C352.768707,554.495544 352.660126,447.840302 352.673828,341.185272   C352.677368,313.841522 373.728760,292.749542 401.124634,292.752014   C476.116058,292.758759 551.107544,292.800598 626.098938,292.895508   C648.863647,292.924286 667.970520,308.458710 672.823303,330.516388   C673.444580,333.340088 673.331970,336.147308 673.332397,338.965820   C673.350769,446.620728 673.301025,554.275696 673.414917,661.930481   C673.428101,674.407043 674.548584,686.877686 674.221558,699.853760  M564.500000,477.271759   C503.019745,477.275970 441.539429,477.317932 380.059387,477.205688   C375.613312,477.197571 373.993286,478.291321 374.018585,483.061310   C374.175690,512.716492 374.023163,542.373291 373.957397,572.029602   C373.907898,594.354919 373.862640,616.680298 373.763702,639.005432   C373.666992,660.826416 373.501007,682.647095 373.385681,704.467957   C373.381348,705.289856 373.540375,706.122803 373.705170,706.933960   C376.774353,722.041565 388.611633,731.642395 404.387451,731.648132   C471.699249,731.672546 539.011047,731.676147 606.322754,731.614929   C612.642761,731.609192 618.977722,731.286194 625.278748,730.776978   C637.839966,729.761963 647.921753,721.340393 651.269287,709.293579   C652.759460,703.930847 652.848694,698.395752 652.523560,692.922363   C651.248047,671.451965 652.362915,649.972778 652.186890,628.499695   C651.792236,580.351685 652.047791,532.198364 652.042114,484.047180   C652.041321,477.341217 652.019043,477.276093 645.474365,477.273102   C618.816223,477.260956 592.158142,477.270569 564.500000,477.271759  M652.587830,361.634003   C652.422302,355.142456 652.151794,348.651520 652.111633,342.159210   C652.005188,324.945984 641.529175,314.378571 624.377075,314.379303   C589.393311,314.380768 554.409607,314.429474 519.425842,314.425598   C479.127747,314.421143 438.829681,315.897766 398.531067,314.428680   C395.999451,314.336365 393.590729,315.039093 391.253540,315.978485   C380.231079,320.409088 373.384888,330.386505 373.367798,342.431152   C373.317444,377.914642 373.344208,413.398193 373.347137,448.881744   C373.347717,455.674927 373.360992,455.691284 380.192780,455.691986   C439.165436,455.697906 498.138062,455.697266 557.110718,455.699097   C586.930237,455.699982 616.750183,455.618683 646.568665,455.792816   C651.043213,455.818939 652.435364,454.180634 652.335999,449.998535   C652.209473,444.681702 652.546021,439.355713 652.554443,434.033447   C652.592163,410.223938 652.584229,386.414307 652.587830,361.634003  z" fill="rgb(25, 124, 71)" opacity="1.000000" stroke="none"/>
<path d=" M534.880066,682.225403   C519.945740,684.944214 505.385498,685.625122 490.840393,682.717346   C487.922180,682.133911 486.481659,683.163025 485.202698,685.417786   C482.491302,690.198120 479.740631,694.956848 476.946289,699.689087   C473.138824,706.137024 468.168060,707.927612 462.415955,704.997803   C457.009369,702.243958 454.830627,696.171814 457.771881,689.970276   C460.618713,683.967834 464.097748,678.250427 467.528534,672.545837   C469.350677,669.515991 469.506317,667.110291 467.494598,663.909790   C459.544830,651.262451 457.589203,637.376160 459.325378,622.662170   C460.086578,616.211121 460.994324,609.797180 462.253326,603.450317   C466.573212,581.673401 479.350586,565.425659 496.686768,552.499817   C526.074463,530.588196 559.526001,518.779358 595.544434,513.627136   C601.297485,512.804260 607.106079,512.329773 612.826599,511.335022   C616.129578,510.760651 617.114685,512.032043 617.032715,514.973816   C616.684875,527.460632 616.875488,539.990295 615.877869,552.424805   C614.295349,572.148682 611.552917,591.835388 606.085083,610.842407   C598.951538,635.639771 586.021667,656.903809 563.592285,671.142090   C554.911133,676.652893 545.084595,679.395630 534.880066,682.225403  M555.430115,649.926453   C571.779419,637.723450 581.163940,620.713806 586.728760,601.767334   C592.510315,582.082703 594.278137,561.636414 594.697510,541.121399   C594.759521,538.090942 594.543640,535.723450 590.425476,536.552368   C560.025879,542.670959 531.445557,553.142029 506.842804,572.541870   C497.616669,579.816895 490.267761,588.835571 486.169525,600.201172   C481.381256,613.480347 480.608246,627.164185 481.500824,641.049683   C481.609009,642.732300 482.387146,644.371826 483.018280,646.611572   C484.394836,645.026855 485.311462,644.082397 486.103638,643.042969   C496.816284,628.986328 508.174683,615.478271 520.427307,602.736389   C527.696777,595.176758 534.749695,587.383545 542.794678,580.619751   C547.737976,576.463745 553.775269,576.351440 557.799011,580.011414   C562.233582,584.045105 562.573853,589.747559 558.760864,595.303772   C556.386475,598.763550 553.373962,601.639282 550.448853,604.601929   C534.198608,621.060608 516.972595,636.650269 504.341156,656.335266   C503.215912,658.088928 501.679504,659.659851 501.686005,662.615967   C520.633728,662.913940 538.781677,661.340088 555.430115,649.926453  z" fill="rgb(25, 124, 71)" opacity="1.000000" stroke="none"/>
<path d=" M411.192291,512.814392   C420.157349,510.298950 426.281189,514.677429 426.313202,523.429565   C426.391266,544.758484 426.379730,566.087952 426.351379,587.417053   C426.342529,594.084167 421.641632,599.783508 416.045135,600.139282   C411.065857,600.455811 405.769623,595.462158 405.497314,588.881409   C404.587921,566.907410 405.000641,544.914185 405.312775,522.928040   C405.324493,522.101929 405.498138,521.270691 405.663269,520.455444   C406.316711,517.229370 407.616608,514.435547 411.192291,512.814392  z" fill="rgb(25, 124, 71)" opacity="1.000000" stroke="none"/>
<path d=" M404.234619,387.150299   C404.386353,381.403809 404.393738,376.090088 404.673767,370.790741   C405.042725,363.808105 408.558838,360.048065 414.499268,359.952545   C420.787842,359.851379 426.131409,364.994843 426.240112,371.755829   C426.411133,382.392792 426.276825,393.034668 426.271942,403.674469   C426.269257,409.493103 426.543823,415.329102 426.180206,421.125092   C425.867249,426.113403 425.067169,431.295654 419.631744,433.627441   C412.871338,436.527618 405.691315,431.207428 404.680298,422.947144   C403.643036,414.472687 404.933472,406.013611 404.583954,397.550598   C404.446808,394.230774 404.334991,390.909851 404.234619,387.150299  z" fill="rgb(25, 124, 71)" opacity="1.000000" stroke="none"/>
</svg>